<svg width="30" height="30" viewBox="0 0 30 30" fill="none" xmlns="http://www.w3.org/2000/svg">
<g clip-path="url(#clip0_115_6)">
<path d="M3.75 3.75C2.75544 3.75 1.80161 4.14509 1.09835 4.84835C0.395088 5.55161 0 6.50544 0 7.5L0 22.5188C0.00495661 23.5101 0.402232 24.4591 1.10496 25.1583C1.80768 25.8575 2.75868 26.25 3.75 26.25H14.0625C14.3111 26.25 14.5496 26.1512 14.7254 25.9754C14.9012 25.7996 15 25.5611 15 25.3125C15 25.0639 14.9012 24.8254 14.7254 24.6496C14.5496 24.4738 14.3111 24.375 14.0625 24.375H3.75C3.33727 24.3751 2.93605 24.2389 2.60857 23.9877C2.28109 23.7365 2.04565 23.3843 1.93875 22.9856L12.5137 16.4775L15 17.9681L28.125 10.0931V15.9375C28.125 16.1861 28.2238 16.4246 28.3996 16.6004C28.5754 16.7762 28.8139 16.875 29.0625 16.875C29.3111 16.875 29.5496 16.7762 29.7254 16.6004C29.9012 16.4246 30 16.1861 30 15.9375V7.5C30 6.50544 29.6049 5.55161 28.9016 4.84835C28.1984 4.14509 27.2446 3.75 26.25 3.75H3.75ZM10.7025 15.39L1.875 20.8219V10.0931L10.7025 15.39ZM1.875 7.90688V7.5C1.875 7.00272 2.07254 6.52581 2.42417 6.17417C2.77581 5.82254 3.25272 5.625 3.75 5.625H26.25C26.7473 5.625 27.2242 5.82254 27.5758 6.17417C27.9275 6.52581 28.125 7.00272 28.125 7.5V7.90688L15 15.7819L1.875 7.90688Z" fill="#F3A712"/>
<path d="M26.7131 26.7544C28.6069 26.7544 29.6887 25.1475 29.6887 22.9575V22.5638C29.6887 19.5563 27.45 16.875 23.475 16.875H23.4094C19.5375 16.875 16.875 19.425 16.875 23.31V23.7112C16.875 27.7875 19.5712 30 23.1712 30H23.2538C24.3675 30 25.1625 29.8612 25.5731 29.6719V28.3031C25.1137 28.5094 24.3112 28.6406 23.3606 28.6406H23.2781C20.7769 28.6406 18.4575 27.1631 18.4575 23.6625V23.3681C18.4575 20.2613 20.4413 18.2606 23.4075 18.2606H23.4825C26.3606 18.2606 28.14 20.2294 28.14 22.6219V22.8431C28.14 24.6712 27.5325 25.4494 26.9419 25.4494C26.5069 25.4494 26.1731 25.1719 26.1731 24.6619V20.5556H24.4744V21.6225H24.4181C24.2606 21.0637 23.7281 20.4413 22.6294 20.4413C21.1706 20.4413 20.2688 21.4819 20.2688 23.0663V24.0562C20.2688 25.7287 21.1875 26.745 22.6312 26.745C23.5144 26.745 24.3112 26.3194 24.5325 25.5394H24.6131C24.8344 26.3269 25.77 26.7544 26.7131 26.7544ZM22.1137 23.7769V23.3513C22.1137 22.3275 22.5394 21.8681 23.1881 21.8681C23.745 21.8681 24.2606 22.2281 24.2606 23.1956V23.8837C24.2606 24.9581 23.7862 25.2788 23.2031 25.2788C22.5394 25.2788 22.1137 24.8756 22.1137 23.7788V23.7769Z" fill="#F3A712"/>
</g>
<defs>
<clipPath id="clip0_115_6">
<rect width="30" height="30" fill="white"/>
</clipPath>
</defs>
</svg>
