<svg width="45" height="45" viewBox="0 0 45 45" fill="none" xmlns="http://www.w3.org/2000/svg">
<path fill-rule="evenodd" clip-rule="evenodd" d="M15.6178 23.13C15.5198 22.9344 15.4688 22.7187 15.4688 22.5C15.4688 22.2813 15.5198 22.0655 15.6178 21.87L24.0553 4.995C24.1371 4.82844 24.2511 4.67973 24.3907 4.55744C24.5303 4.43516 24.6928 4.34171 24.8687 4.2825C25.0446 4.22329 25.2304 4.19948 25.4156 4.21244C25.6007 4.22541 25.7814 4.27489 25.9474 4.35803C26.1133 4.44118 26.2611 4.55634 26.3823 4.69689C26.5035 4.83744 26.5957 5.00059 26.6535 5.17693C26.7114 5.35327 26.7337 5.53932 26.7193 5.72435C26.7049 5.90938 26.6541 6.08973 26.5696 6.255L18.45 22.5L26.5696 38.745C26.6541 38.9103 26.7049 39.0906 26.7193 39.2756C26.7337 39.4607 26.7114 39.6467 26.6535 39.8231C26.5957 39.9994 26.5035 40.1626 26.3823 40.3031C26.2611 40.4436 26.1133 40.5588 25.9474 40.642C25.7814 40.7251 25.6007 40.7746 25.4156 40.7876C25.2304 40.8005 25.0446 40.7767 24.8687 40.7175C24.6928 40.6583 24.5303 40.5648 24.3907 40.4426C24.2511 40.3203 24.1371 40.1716 24.0553 40.005L15.6178 23.13Z" fill="#1E1E1E"/>
</svg>
