<svg width="30" height="30" viewBox="0 0 30 30" fill="none" xmlns="http://www.w3.org/2000/svg">
<g clip-path="url(#clip0_45_45)">
<path d="M0 15C0 11.0218 1.58035 7.20644 4.3934 4.3934C7.20644 1.58035 11.0218 0 15 0C18.9782 0 22.7936 1.58035 25.6066 4.3934C28.4196 7.20644 30 11.0218 30 15C30 18.9782 28.4196 22.7936 25.6066 25.6066C22.7936 28.4196 18.9782 30 15 30C11.0218 30 7.20644 28.4196 4.3934 25.6066C1.58035 22.7936 0 18.9782 0 15ZM14.0625 2.01938C12.8062 2.40188 11.5594 3.55687 10.5244 5.4975C10.2556 6.00125 10.0087 6.54625 9.78375 7.1325C11.1056 7.42687 12.5437 7.61438 14.0625 7.67063V2.01938ZM7.96688 6.63562C8.23438 5.91437 8.535 5.24062 8.86875 4.61438C9.19508 4.0026 9.56938 3.41764 9.98812 2.865C8.39164 3.52606 6.94141 4.49586 5.72063 5.71875C6.40063 6.065 7.14937 6.36938 7.96688 6.63562ZM6.57938 14.0625C6.64687 12.0562 6.93187 10.1494 7.39687 8.4225C6.38146 8.09921 5.39894 7.68047 4.4625 7.17188C2.96877 9.17671 2.08237 11.5684 1.90875 14.0625H6.57938ZM9.20438 8.92312C8.76165 10.6025 8.51006 12.3266 8.45437 14.0625H14.0625V9.54562C12.3562 9.48938 10.7194 9.27375 9.20438 8.92312ZM15.9375 9.54375V14.0625H21.5437C21.4887 12.3267 21.2377 10.6026 20.7956 8.92312C19.2806 9.27375 17.6437 9.48563 15.9375 9.54375ZM8.45625 15.9375C8.52188 17.7881 8.78625 19.5263 9.20438 21.0769C10.8001 20.7146 12.427 20.5068 14.0625 20.4562V15.9375H8.45625ZM15.9375 15.9375V20.4544C17.6437 20.5106 19.2806 20.7262 20.7956 21.0769C21.2137 19.5263 21.4781 17.7881 21.5456 15.9375H15.9375ZM9.78375 22.8675C10.0087 23.4538 10.2556 23.9987 10.5244 24.5025C11.5594 26.4431 12.8081 27.5963 14.0625 27.9806V22.3312C12.5437 22.3875 11.1056 22.5731 9.78375 22.8675ZM9.99 27.135C9.57061 26.5824 9.19568 25.9975 8.86875 25.3856C8.52414 24.7317 8.22287 24.0559 7.96688 23.3625C7.19561 23.6105 6.44463 23.9177 5.72063 24.2812C6.94141 25.5041 8.39352 26.4739 9.99 27.135ZM7.39687 21.5775C6.91072 19.7347 6.63583 17.8425 6.5775 15.9375H1.90875C2.08237 18.4316 2.96877 20.8233 4.4625 22.8281C5.34375 22.3444 6.32812 21.9244 7.39687 21.5775ZM20.0119 27.135C21.6075 26.4743 23.0571 25.5051 24.2775 24.2831C23.5541 23.9196 22.8038 23.6125 22.0331 23.3644C21.7771 24.0571 21.4758 24.7323 21.1313 25.3856C20.8049 25.9974 20.4306 26.5824 20.0119 27.135ZM15.9375 22.3294V27.9806C17.1938 27.5981 18.4406 26.4431 19.4756 24.5025C19.7456 23.9987 19.9925 23.4538 20.2162 22.8675C18.8093 22.5587 17.3771 22.3773 15.9375 22.3294ZM22.6031 21.5775C23.6719 21.9244 24.6562 22.3444 25.5375 22.8281C27.0312 20.8233 27.9176 18.4316 28.0913 15.9375H23.4225C23.3642 17.8425 23.0893 19.7347 22.6031 21.5775ZM28.0913 14.0625C27.9176 11.5684 27.0312 9.17671 25.5375 7.17188C24.6562 7.65562 23.6719 8.07563 22.6031 8.4225C23.0681 10.1475 23.3531 12.0562 23.4225 14.0625H28.0913ZM21.1313 4.61438C21.4638 5.24188 21.765 5.91563 22.035 6.63562C22.805 6.38742 23.5547 6.08026 24.2775 5.71688C23.0569 4.49554 21.6074 3.52704 20.0119 2.86688C20.4206 3.3975 20.7956 3.98625 21.1313 4.61438ZM20.2162 7.1325C20.0022 6.5732 19.7549 6.02723 19.4756 5.4975C18.4406 3.55687 17.1938 2.40375 15.9375 2.01938V7.66875C17.4562 7.6125 18.8944 7.42687 20.2162 7.1325Z" fill="#F3A712"/>
</g>
<defs>
<clipPath id="clip0_45_45">
<rect width="30" height="30" fill="white"/>
</clipPath>
</defs>
</svg>
