<svg width="30" height="30" viewBox="0 0 30 30" fill="none" xmlns="http://www.w3.org/2000/svg">
<g clip-path="url(#clip0_45_47)">
<path d="M22.8113 16.7625C21.8288 18.7537 20.4975 20.7375 19.1363 22.5188C17.8435 24.1969 16.4628 25.8054 15 27.3375C13.5372 25.8054 12.1565 24.1969 10.8638 22.5188C9.5025 20.7375 8.17125 18.7537 7.18875 16.7625C6.195 14.7506 5.625 12.8663 5.625 11.25C5.625 8.7636 6.61272 6.37903 8.37087 4.62087C10.129 2.86272 12.5136 1.875 15 1.875C17.4864 1.875 19.871 2.86272 21.6291 4.62087C23.3873 6.37903 24.375 8.7636 24.375 11.25C24.375 12.8663 23.8031 14.7506 22.8113 16.7625ZM15 30C15 30 26.25 19.3388 26.25 11.25C26.25 8.26631 25.0647 5.40483 22.955 3.29505C20.8452 1.18526 17.9837 0 15 0C12.0163 0 9.15483 1.18526 7.04505 3.29505C4.93526 5.40483 3.75 8.26631 3.75 11.25C3.75 19.3388 15 30 15 30Z" fill="#F3A712"/>
<path d="M15 15C14.0054 15 13.0516 14.6049 12.3483 13.9017C11.6451 13.1984 11.25 12.2446 11.25 11.25C11.25 10.2554 11.6451 9.30161 12.3483 8.59835C13.0516 7.89509 14.0054 7.5 15 7.5C15.9946 7.5 16.9484 7.89509 17.6516 8.59835C18.3549 9.30161 18.75 10.2554 18.75 11.25C18.75 12.2446 18.3549 13.1984 17.6516 13.9017C16.9484 14.6049 15.9946 15 15 15ZM15 16.875C16.4918 16.875 17.9226 16.2824 18.9775 15.2275C20.0324 14.1726 20.625 12.7418 20.625 11.25C20.625 9.75816 20.0324 8.32742 18.9775 7.27252C17.9226 6.21763 16.4918 5.625 15 5.625C13.5082 5.625 12.0774 6.21763 11.0225 7.27252C9.96763 8.32742 9.375 9.75816 9.375 11.25C9.375 12.7418 9.96763 14.1726 11.0225 15.2275C12.0774 16.2824 13.5082 16.875 15 16.875Z" fill="#F3A712"/>
</g>
<defs>
<clipPath id="clip0_45_47">
<rect width="30" height="30" fill="white"/>
</clipPath>
</defs>
</svg>
