<svg width="30" height="30" viewBox="0 0 30 30" fill="none" xmlns="http://www.w3.org/2000/svg">
<g clip-path="url(#clip0_45_43)">
<path d="M6.85116 2.4901C6.74047 2.34771 6.60075 2.23051 6.44129 2.14627C6.28182 2.06203 6.10626 2.01268 5.92625 2.00151C5.74625 1.99034 5.56593 2.01759 5.39727 2.08147C5.22862 2.14534 5.07548 2.24437 4.94803 2.37197L3.00928 4.3126C2.10366 5.2201 1.76991 6.50447 2.16553 7.63135C3.8094 12.2947 6.4802 16.529 9.98053 20.0213C13.4729 23.5217 17.7072 26.1925 22.3705 27.8363C23.4974 28.232 24.7818 27.8982 25.6893 26.9926L27.628 25.0538C27.7556 24.9264 27.8547 24.7733 27.9185 24.6046C27.9824 24.4359 28.0097 24.2556 27.9985 24.0756C27.9873 23.8956 27.938 23.7201 27.8537 23.5606C27.7695 23.4011 27.6523 23.2614 27.5099 23.1507L23.1843 19.787C23.032 19.6692 22.8551 19.5875 22.6668 19.5479C22.4784 19.5083 22.2836 19.5118 22.0968 19.5582L17.9905 20.5838C17.4424 20.7199 16.8684 20.7122 16.3241 20.5614C15.7798 20.4106 15.2837 20.1219 14.8837 19.7232L10.2787 15.1163C9.87962 14.7165 9.59056 14.2205 9.43946 13.6762C9.28836 13.1319 9.28033 12.5578 9.41616 12.0095L10.4437 7.90322C10.4901 7.71644 10.4936 7.52158 10.454 7.33324C10.4144 7.1449 10.3326 6.96797 10.2149 6.81572L6.85116 2.4901ZM3.53241 0.95822C3.86052 0.630001 4.25471 0.37534 4.68879 0.211148C5.12288 0.0469555 5.58692 -0.0230107 6.05012 0.0058948C6.51332 0.0348003 6.96507 0.161916 7.37537 0.378802C7.78567 0.595687 8.14514 0.897379 8.42991 1.26385L11.7937 5.5876C12.4105 6.38072 12.628 7.41385 12.3843 8.38885L11.3587 12.4951C11.306 12.7078 11.309 12.9305 11.3675 13.1417C11.426 13.3528 11.5379 13.5454 11.6924 13.7007L16.2993 18.3076C16.4548 18.4624 16.6477 18.5745 16.8592 18.633C17.0708 18.6915 17.2938 18.6943 17.5068 18.6413L21.6112 17.6157C22.0924 17.4961 22.5944 17.4871 23.0796 17.5894C23.5648 17.6917 24.0205 17.9026 24.4124 18.2063L28.7362 21.5701C30.2905 22.7795 30.433 25.0763 29.0418 26.4657L27.103 28.4045C25.7155 29.792 23.6418 30.4013 21.7087 29.7207C16.7599 27.9818 12.2672 25.149 8.56491 21.4332C4.84935 17.7315 2.01657 13.2394 0.277406 8.29135C-0.401344 6.3601 0.208031 4.28447 1.59553 2.89697L3.53241 0.95822Z" fill="#F3A712"/>
</g>
<defs>
<clipPath id="clip0_45_43">
<rect width="30" height="30" fill="white"/>
</clipPath>
</defs>
</svg>
